<?xml version="1.0" encoding="utf-8"?>
<!-- Generator: Adobe Illustrator 22.1.0, SVG Export Plug-In . SVG Version: 6.00 Build 0)  -->
<svg version="1.1" xmlns="http://www.w3.org/2000/svg" xmlns:xlink="http://www.w3.org/1999/xlink" x="0px" y="0px"
	 viewBox="0 0 40 40" style="enable-background:new 0 0 40 40;" xml:space="preserve">
<style type="text/css">
	.st0{display:none;}
	.st1{fill:#FFFFFF;}
</style>
<g id="Layer_1" class="st0">
	
		<image style="display:inline;overflow:visible;" width="6300" height="4098" xlink:href="AFF3F9B56FE24E05.jpg"  transform="matrix(0.12 0 0 0.12 466 -1561)">
	</image>
</g>
<g id="Layer_1_copy">
	<g>
		<path class="st1" d="M19.6,34.1c-0.3,0.3-0.6,0.7-0.7,0.9c0.2,0.1,0.4,0,0.7,0.1c0.2,0,0.5,0,0.7,0c0.2,0,0.5,0,0.7,0
			c0.2,0,0.5,0,0.7,0c0.2,0,0.5,0,0.7,0.1c0,0,0,0.1,0,0.1c-1.2,1.5-2.3,3-3.5,4.6c-0.1-0.1,0-0.2,0-0.3c0-0.1,0-0.2,0-0.3
			c0-0.1,0-0.2,0-0.3c0-0.1,0-0.2,0-0.3c0-0.1,0-0.2,0-0.3c0-0.1,0-0.2,0-0.3c0-0.1,0-0.2,0-0.3c0-0.1,0-0.2,0-0.3
			c0-0.1,0-0.2,0-0.3c0-0.1,0-0.2,0-0.3c0-0.1,0-0.2,0-0.3c-0.1-0.1-0.2-0.1-0.3-0.1c-1.2-0.3-2.3-0.5-3.5-0.8c-0.1,0-0.1,0-0.2-0.1
			c0.1-0.3,0.6-1.9,0.8-2.1c0.2,0,0.5,0.1,0.7,0.1c0.2,0,0.5,0.1,0.7,0.1c0.2,0,0.5,0,0.7,0c0,0,0,0-0.1,0c-0.9-0.1-1.7-0.3-2.6-0.5
			c-0.6-0.2-1.1-0.4-1.7-0.6c-0.9-0.4-1.8-0.8-2.6-1.3c-0.9-0.5-1.7-1.1-2.4-1.8c-0.9-0.8-1.8-1.8-2.5-2.8c-0.6-0.8-1.1-1.7-1.6-2.6
			c-0.5-1-0.9-2-1.1-3.1c-0.1-0.5-0.2-0.9-0.3-1.4c-0.1-0.8-0.2-1.5-0.2-2.3c0-0.6,0-1.1,0-1.7c0.1-2.2,0.7-4.3,1.6-6.2
			c0.7-1.5,1.6-2.9,2.8-4.1c1.2-1.4,2.7-2.5,4.3-3.5C13,1.4,14.5,0.8,16,0.5c0.6-0.1,1.1-0.2,1.7-0.3C18.7,0,19.7,0,20.6,0
			c0.5,0,0.9,0,1.4,0.1c0.6,0.1,1.1,0.2,1.7,0.3c0.8,0.2,1.6,0.4,2.4,0.7c1.2,0.5,2.4,1.1,3.5,1.8c0.7,0.5,1.3,1,1.9,1.5
			c1,0.9,1.9,2,2.7,3.1c0.8,1.2,1.4,2.4,1.9,3.8c0.3,1,0.6,1.9,0.7,2.9c0.2,1.1,0.2,2.2,0.2,3.2c0,1.2-0.2,2.3-0.5,3.5
			c-0.3,1.2-0.7,2.3-1.2,3.4c-0.2,0.3-0.3,0.6-0.5,1c-0.3,0.5-0.7,1-1,1.5c-0.4,0.6-0.9,1.2-1.5,1.8c-0.7,0.8-1.6,1.5-2.4,2.1
			c-0.7,0.5-1.5,1-2.3,1.4c-1,0.5-2.1,0.9-3.1,1.2c-0.6,0.2-1.3,0.3-2,0.4c-0.7,0.1-1.4,0.2-2.2,0.2C20.1,34.1,19.9,34.1,19.6,34.1z
			 M26.6,12c-0.2,0-0.3,0-0.4-0.1c-0.3,0-0.6-0.1-0.9-0.2c-0.3-0.1-0.6-0.3-0.8-0.6c0,0-0.1-0.1-0.1-0.1c-0.3-0.1-0.6-0.2-0.9-0.2
			c-0.2,0-0.3-0.1-0.5-0.1c-0.3,0-0.4,0.1-0.5,0.4c-0.1,0.2-0.1,0.4,0.1,0.6c0,0.1,0.1,0.1,0.1,0.2c0.2,0.2,0.3,0.3,0.5,0.5
			c0.5,0.5,1.1,0.9,1.6,1.4c0.2,0.2,0.4,0.4,0.6,0.6c0,0,0.1,0.1,0.2,0.1c0-0.5-0.1-1.1-0.1-1.6c0.1-0.1,0.1-0.1,0.2-0.2
			c0,0.1,0.1,0.1,0.1,0.2c0,0.1,0,0.2,0,0.2c0,0.4,0.1,0.8,0.1,1.2c0.1,0.6,0.1,1.1,0.2,1.7c0,0,0,0.1,0.1,0.1
			c0.1-0.1,0.2-0.2,0.2-0.4c0-0.1,0-0.3,0-0.4c0,0,0.1,0,0.1,0.1c0.8,0.9,1.6,1.8,2.3,2.8c0.4,0.6,0.8,1.2,1.2,1.9
			c0,0,0.1,0.1,0,0.1c-0.2-0.1-0.4-0.2-0.6-0.3c-0.6-0.3-1.2-0.4-1.9-0.5c-0.3,0-0.6-0.1-0.9-0.1c-0.1,0-0.3,0-0.4,0.1
			c-0.2,0-0.3,0.2-0.3,0.4c0,0.1,0,0.2,0,0.3c0.1,0.3,0.2,0.6,0.4,0.9c0.3,0.4,0.5,0.8,0.8,1.2c0,0,0.1,0.1,0,0.2c0,0-0.1,0-0.1-0.1
			c-0.8-0.6-1.7-1.1-2.7-1.5c-0.8-0.3-1.5-0.6-2.3-0.8c-0.8-0.2-1.5-0.4-2.3-0.6c-0.5-0.1-0.9-0.3-1.3-0.7c-0.3-0.2-0.6-0.5-0.8-0.8
			c-0.3-0.5-0.5-1-0.5-1.5c0-0.4,0.1-0.7,0.2-1.1c0.1-0.2,0.2-0.5,0.3-0.7c0,0,0-0.1,0-0.1c-0.3,0.2-0.5,0.4-0.6,0.7
			c-0.3,0.5-0.3,1.1-0.2,1.7c0.1,0.4,0.2,0.7,0.3,1.1c0.3,0.7,0.7,1.4,1.1,2.1c0.6,1,1.2,1.9,1.8,2.9c0.7,1.1,1.5,2.2,2.2,3.3
			c0.2,0.3,0.4,0.6,0.6,1c0.5,0.9,0.7,1.9,0.8,2.9c0,0.4,0.1,0.8,0.1,1.2c0,0.4,0,0.7,0,1.1c0,0.2,0,0.4,0,0.6c0.4,0,2-0.4,2.5-0.7
			c0.1-0.1,0.1-0.2,0.1-0.3c0-0.3,0-0.6,0-0.9c0-0.6-0.1-1.3-0.3-1.9c-0.2-1-0.6-1.8-1.2-2.6c-0.7-1-1.5-2-2.3-3
			c-0.9-1.1-1.9-2.1-3-3.1c-0.1-0.1-0.3-0.2-0.4-0.4c0.1,0,0.1,0,0.2,0c0.4,0.1,0.8,0.2,1.2,0.3c1.4,0.4,2.8,1,4.1,1.7
			c1.1,0.6,2.2,1.3,3.1,2.1c0.2,0.2,0.4,0.4,0.5,0.6c0.2,0.3,0.3,0.6,0.3,1c0,0.1,0,0.1,0,0.2c0,0.2,0.1,0.3,0.2,0.5
			c0.1,0.1,0.2,0.1,0.4,0.1c0.6-0.1,1.1-0.2,1.7-0.4c0,0,0.1,0,0.1-0.1c0-0.1,0-0.1,0-0.2c-0.1-0.6-0.3-1.2-0.7-1.7
			c-0.2-0.3-0.4-0.6-0.6-0.9c-0.1-0.2-0.2-0.3-0.3-0.5c0,0,0-0.1,0-0.2c0.1,0,0.1,0,0.1,0c0.1,0,0.2,0.1,0.3,0.1
			c0.5,0.3,0.9,0.7,1.2,1.2c0.2,0.4,0.4,0.9,0.5,1.4c0,0.2,0.1,0.3,0.1,0.5c0,0,0.1,0,0.1,0c0.1,0,0.1,0,0.2-0.1
			c0.9-0.4,1.7-0.8,2.6-1.3c0.3-0.2,0.5-0.4,0.7-0.6c0.2-0.2,0.3-0.3,0.4-0.6c0-0.1,0-0.1,0-0.2c-0.1-0.3-0.2-0.6-0.4-0.8
			c-0.4-0.4-0.8-0.8-1.1-1.2c-0.6-0.8-1.2-1.7-1.8-2.6c-0.5-0.8-1-1.6-1.5-2.5c-0.6-1-1.1-2-1.7-3.1c0-0.1-0.1-0.2-0.1-0.3
			c0-0.4-0.2-0.8-0.3-1.2c-0.3-0.9-0.7-1.8-1.2-2.7c-0.4-0.8-0.9-1.5-1.5-2.2c-0.4-0.4-0.9-0.8-1.4-1c0,0-0.1,0-0.1,0
			c-0.1-0.2,0-0.4,0-0.5c0.1-0.6,0.4-1.1,0.7-1.5c0.3-0.5,0.7-0.9,1.2-1.2c0.1-0.1,0.2-0.1,0.2-0.2c0,0-0.1,0-0.1,0
			C25.8,2,25.4,1.9,25,1.8c-0.6-0.2-1.3-0.3-2-0.4c-0.6-0.1-1.1-0.1-1.7-0.2c-0.3,0-0.6,0-0.8,0c-0.2,0-0.5,0-0.7,0
			c-0.9,0-1.8,0.2-2.6,0.4c-1.2,0.3-2.4,0.7-3.5,1.2c-1.8,0.9-3.4,2-4.7,3.5c-1.1,1.2-2.1,2.6-2.8,4.1c-0.5,1-0.8,2.1-1.1,3.2
			c-0.2,0.9-0.3,1.7-0.4,2.6c-0.1,0.8,0,1.6,0,2.4c0.1,0.9,0.2,1.8,0.5,2.7C5.6,23,6.3,24.6,7.3,26c0.7,1.1,1.6,2.1,2.6,3
			c0.5,0.4,1,0.8,1.5,1.2c0.1,0.1,0.1,0.1,0.2,0.1c0-0.1-0.1-0.2-0.1-0.2c-0.3-0.6-0.6-1.2-0.8-1.9c-0.7-1.6-1.3-3.3-1.7-5.1
			c-0.2-0.9-0.4-1.7-0.5-2.6c-0.1-0.8-0.1-1.5-0.1-2.3c0-0.7,0.1-1.4,0.2-2.2C8.8,15,9.2,14,9.7,13c0.6-1.1,1.3-2.2,2.2-3.1
			c0.7-0.7,1.3-1.3,2.1-1.9c0.9-0.7,1.9-1.4,3-1.9c0.9-0.4,1.8-0.7,2.8-0.9c0.1,0,0.1,0,0.2,0c0-0.1,0.1-0.2,0.1-0.2
			c0.2-0.4,0.3-0.9,0.6-1.3c0.4-0.6,0.9-1.1,1.5-1.4c0.6-0.3,1.2-0.4,1.9-0.4c0.6,0,1.1,0.1,1.6,0.3c0,0,0.1,0,0.1,0.1
			c-0.1,0-0.2,0.1-0.3,0.1c-1.3,0.3-2.1,1.1-2.7,2.3c-0.1,0.2-0.1,0.3-0.2,0.5c-0.1,0.2-0.2,0.3-0.4,0.4c0,0-0.1,0-0.1,0.1
			c0.1,0.1,0.2,0.1,0.2,0.1c0.2,0.1,0.4,0.2,0.6,0.4c0.7,0.4,1.3,0.9,1.8,1.4c0.3,0.3,0.5,0.6,0.7,0.9c0.1,0.1,0.1,0.3,0.1,0.4
			c-0.1,0-0.1,0-0.2,0c-0.1,0-0.1,0-0.2,0c-0.1,0-0.2,0-0.3,0c-0.7,0-1.3,0-2,0c-0.3,0-0.7,0.1-1,0.2c-0.2,0.1-0.4,0.1-0.6,0.2
			c0,0-0.1,0-0.1,0.1c0.1,0,0.2,0.1,0.4,0.1c0.5,0,1.1,0.1,1.6,0.2c0.7,0.1,1.4,0.3,2,0.6c0,0,0.1,0.1,0.1,0c0,0,0-0.1,0-0.1
			c0-0.2,0-0.3,0.1-0.4c0.1-0.1,0.1,0,0.2,0c0,0,0,0.1,0,0.1c0,0.1,0,0.3,0,0.4c0,0.1,0.1,0.2,0.2,0.3c0.1,0.1,0.3,0.2,0.4,0.3
			c0.2,0.2,0.3,0.4,0.5,0.6C26.6,11.7,26.6,11.8,26.6,12z"/>
		<path class="st1" d="M33.4,23.2c0.1-0.1,0-0.3,0-0.4c-0.1-0.3-0.5-0.5-0.8-0.3c-0.2,0.1-0.3,0.4-0.2,0.7c0,0,0-0.1,0.1-0.1
			c0.1-0.1,0.1-0.2,0.2-0.2c0.2-0.2,0.5-0.2,0.6,0.1C33.3,23,33.4,23.1,33.4,23.2z"/>
		<path class="st1" d="M33.4,23.2c-0.1-0.1-0.1-0.2-0.1-0.2c-0.2-0.2-0.4-0.2-0.6-0.1c-0.1,0.1-0.1,0.1-0.2,0.2c0,0,0,0.1-0.1,0.1
			c-0.1-0.3,0-0.5,0.2-0.7c0.3-0.2,0.7-0.1,0.8,0.3C33.4,22.9,33.5,23,33.4,23.2z"/>
	</g>
</g>
</svg>
